<svg id="Layer_1" data-name="Layer 1" xmlns="http://www.w3.org/2000/svg" xmlns:xlink="http://www.w3.org/1999/xlink" viewBox="0 0 1080 70"><defs><style>.cls-1{fill:none;}.cls-2{clip-path:url(#clip-path);}.cls-3{fill:#99bfc7;}</style><clipPath id="clip-path"><rect class="cls-1" y="-110.963" width="1080.1437" height="372.0854"/></clipPath></defs><g class="cls-2"><path class="cls-3" d="M539.3472,69.611q-326.5056,0-653.0107.21c-11.8589.0156-15.5169-2.0555-14.9328-10.8817,1.0088-15.2428.6878-30.5558.1107-45.8227-.2611-6.9064,3.2988-8.364,11.8157-7.532,17.0342,1.6638,32.2535,6.6191,47.0628,12.6517C-50.4722,26.031-31.7733,34.6879-9.4618,36.8928,18.623,39.6682,43.8163,33.6781,67.6954,23.22c18.1582-7.953,36.65-15.4848,58.1933-17.4795,26.4658-2.45,50.2321,3.12,72.8311,12.7341,16.9176,7.1974,33.7584,14.6355,53.2828,17.5613,27.4144,4.1082,52.7453-.3852,76.7779-10.1929,9.5775-3.9086,19.1169-7.878,28.85-11.5671,32.1876-12.2,64.5609-12.19,96.8279-.223,12.5688,4.6614,24.7394,9.9031,37.2818,14.605,33.138,12.4224,66.2146,11.7387,99.0023-.7911,9.7162-3.713,19.2681-7.6631,28.8279-11.5936q53.5438-22.0134,107.3784-.439c10.9843,4.4115,21.8481,9.0041,33.0293,13.1281,31.5143,11.6239,63.2522,11.4953,94.8239.1352,10.181-3.6633,20.1314-7.7084,29.9375-11.8959,38.8685-16.598,77.3578-15.6649,115.7133.9315,7.4095,3.2061,15.0309,6.1493,22.5959,9.1575,34.7523,13.8193,69.4619,13.4934,104.326.0686,16.595-6.39,32.1414-14.3008,50.2865-18.4732,29.9725-6.8921,30.8749-6.5051,30.8754,15.736,0,11.82-.5716,23.6593.2073,35.4509.49,7.409-2.1677,9.94-12.8694,9.75-31.6923-.562-63.415-.211-95.1257-.2112Q820.0482,69.61,539.3472,69.611Z"/></g></svg>